<?xml version="1.0" encoding="UTF-8"?>
<svg width="24px" height="24px" viewBox="0 0 24 24" version="1.1" xmlns="http://www.w3.org/2000/svg" xmlns:xlink="http://www.w3.org/1999/xlink">
    <title>message-square-outline</title>
    <g id="Page-1" stroke="none" stroke-width="1" fill="none" fill-rule="evenodd">
        <g id="message-square-outline" fill="#000000" fill-rule="nonzero">
            <rect id="Rectangle" opacity="0" x="0" y="0" width="24" height="24"></rect>
            <circle id="Oval" cx="12" cy="11" r="1"></circle>
            <circle id="Oval" cx="16" cy="11" r="1"></circle>
            <circle id="Oval" cx="8" cy="11" r="1"></circle>
            <path d="M19,3 L5,3 C3.34314575,3 2,4.34314575 2,6 L2,21 C2.00062169,21.3607641 2.19551309,21.6932259 2.51,21.87 C2.65945568,21.9547023 2.82821175,21.9994743 3,22 C3.17948334,22 3.35564432,21.9515893 3.51,21.86 L8,19.14 C8.16596562,19.0411965 8.35699346,18.9925713 8.55,19 L19,19 C20.6568542,19 22,17.6568542 22,16 L22,6 C22,4.34314575 20.6568542,3 19,3 Z M20,16 C20,16.5522847 19.5522847,17 19,17 L8.55,17 C8.00382357,16.9995654 7.46789112,17.1482434 7,17.43 L4,19.23 L4,6 C4,5.44771525 4.44771525,5 5,5 L19,5 C19.5522847,5 20,5.44771525 20,6 L20,16 Z" id="Shape"></path>
        </g>
    </g>
</svg>