<?xml version="1.0" encoding="UTF-8"?>
<svg width="24px" height="24px" viewBox="0 0 24 24" version="1.1" xmlns="http://www.w3.org/2000/svg" xmlns:xlink="http://www.w3.org/1999/xlink">
    <title>bulb-outline</title>
    <g id="Page-1" stroke="none" stroke-width="1" fill="none" fill-rule="evenodd">
        <g id="bulb-outline" transform="translate(-0.000000, 0.000000)" fill="#000000" fill-rule="nonzero">
            <rect id="Rectangle" opacity="0" transform="translate(12.000000, 12.000000) rotate(180.000000) translate(-12.000000, -12.000000) " x="1.77635684e-15" y="1.77635684e-15" width="24" height="24"></rect>
            <path d="M12,7 C9.84784796,7 7.93715374,8.37715047 7.25658351,10.4188612 C6.57601328,12.4605719 7.27827837,14.7087088 9,16 L9,20 C9,21.1045695 9.8954305,22 11,22 L13,22 C14.1045695,22 15,21.1045695 15,20 L15,16 C16.7217216,14.7087088 17.4239867,12.4605719 16.7434165,10.4188612 C16.0628463,8.37715047 14.152152,7 12,7 L12,7 Z M13.5,14.59 C13.1893658,14.769341 12.998576,15.1013152 13,15.46 L13,20 L11,20 L11,15.46 C11.001424,15.1013152 10.8106342,14.769341 10.5,14.59 C9.57429093,14.0555468 9.00287983,13.0689103 9,12 C9,10.3431458 10.3431458,9 12,9 C13.6568542,9 15,10.3431458 15,12 C14.9971202,13.0689103 14.4257091,14.0555468 13.5,14.59 L13.5,14.59 Z" id="Shape"></path>
            <path d="M12,6 C12.5522847,6 13,5.55228475 13,5 L13,3 C13,2.44771525 12.5522847,2 12,2 C11.4477153,2 11,2.44771525 11,3 L11,5 C11,5.55228475 11.4477153,6 12,6 Z" id="Path"></path>
            <path d="M21,11 L19,11 C18.4477153,11 18,11.4477153 18,12 C18,12.5522847 18.4477153,13 19,13 L21,13 C21.5522847,13 22,12.5522847 22,12 C22,11.4477153 21.5522847,11 21,11 Z" id="Path"></path>
            <path d="M5,11 L3,11 C2.44771525,11 2,11.4477153 2,12 C2,12.5522847 2.44771525,13 3,13 L5,13 C5.55228475,13 6,12.5522847 6,12 C6,11.4477153 5.55228475,11 5,11 Z" id="Path"></path>
            <path d="M7.66,6.42 L6.22,5 C5.81407071,4.61616212 5.17383791,4.63407073 4.79000002,5.04000002 C4.40616212,5.4459293 4.42407073,6.0861621 4.83,6.47 L6.27,7.86 C6.46525143,8.04853352 6.72875138,8.149602 7,8.14 C7.27218762,8.13896124 7.53219116,8.02701527 7.72,7.83 C8.09163002,7.42364693 8.0648073,6.79331318 7.66,6.42 L7.66,6.42 Z" id="Path"></path>
            <path d="M19.19,5.05 C18.7999625,4.66227641 18.1700375,4.66227641 17.78,5.05 L16.34,6.42 C15.9522764,6.81003745 15.9522764,7.43996255 16.34,7.83 C16.5278088,8.02701527 16.7878124,8.13896124 17.06,8.14 C17.3174695,8.13897467 17.5646225,8.03868072 17.75,7.86 L19.19,6.47 C19.3793127,6.2822334 19.4857983,6.02663754 19.4857983,5.76 C19.4857983,5.49336246 19.3793127,5.2377666 19.19,5.05 L19.19,5.05 Z" id="Path"></path>
        </g>
    </g>
</svg>