<?xml version="1.0" encoding="UTF-8"?>
<svg width="24px" height="24px" viewBox="0 0 24 24" version="1.1" xmlns="http://www.w3.org/2000/svg" xmlns:xlink="http://www.w3.org/1999/xlink">
    <title>color-palette-outline</title>
    <g id="Page-1" stroke="none" stroke-width="1" fill="none" fill-rule="evenodd">
        <g id="color-palette-outline" fill="#000000" fill-rule="nonzero">
            <rect id="Rectangle" opacity="0" x="0" y="0" width="24" height="24"></rect>
            <path d="M19.54,5.08 C17.5145146,3.06878594 14.764094,1.95852444 11.91,2 C6.3871525,1.98619288 1.89880712,6.4521525 1.88496807,11.975 C1.87119288,17.4978475 6.3371525,21.9861929 11.86,22 C13.0354411,22.0199925 14.0757624,21.2428355 14.39,20.11 C14.5877179,19.302505 14.3744546,18.4494518 13.82,17.83 C13.6910493,17.6832426 13.6593835,17.4748236 13.7389266,17.296389 C13.8184697,17.1179544 13.994651,17.0021901 14.19,17 L15.84,17 C19.0614412,17.0150624 21.7486029,14.5416522 22,11.33 C22.0751864,8.99687877 21.1852827,6.73594462 19.54,5.08 Z M15.88,15 L14.23,15 C13.2455156,14.9944254 12.350182,15.5694304 11.9457282,16.4670149 C11.5412745,17.3645994 11.7036507,18.416211 12.36,19.15 C12.4874661,19.2786137 12.5336115,19.4670407 12.48,19.64 C12.43,19.85 12.2,19.98 11.89,20 C9.59259647,19.9705542 7.41875262,18.9547575 5.92223902,17.2113766 C4.42572542,15.4679957 3.75102038,13.1653422 4.07,10.89 C4.65877695,6.98765446 7.97425151,4.07763921 11.92,4 L12,4 C14.2845992,3.97008854 16.4843845,4.86442745 18.1,6.48 C19.3610934,7.74188558 20.0480996,9.46663293 20,11.25 C19.7855774,13.3685909 18.0093633,14.9852907 15.88,15 L15.88,15 Z" id="Shape"></path>
            <circle id="Oval" cx="12" cy="6.5" r="1.5"></circle>
            <path d="M15.25,7.2 C14.5328463,7.6142737 14.2871578,8.53137896 14.7011658,9.24868602 C15.1151739,9.96599308 16.0321881,10.2120213 16.7496484,9.79827891 C17.4671088,9.38453655 17.7134766,8.46761354 17.3,7.75 C17.1012453,7.40504934 16.7735133,7.15326007 16.3889982,7.05009749 C16.0044832,6.9469349 15.5947296,7.00086219 15.25,7.2 L15.25,7.2 Z" id="Path"></path>
            <path d="M8.75,7.2 C8.03238646,6.78652339 7.11546345,7.03289121 6.70172109,7.75035155 C6.28797872,8.4678119 6.53400692,9.3848261 7.25131398,9.79883416 C7.96862104,10.2128422 8.8857263,9.96715367 9.3,9.25 C9.49913781,8.90527039 9.5530651,8.49551685 9.44990251,8.11100176 C9.34673993,7.72648668 9.09495066,7.39875465 8.75,7.2 L8.75,7.2 Z" id="Path"></path>
            <path d="M6.16,11.26 C5.6568517,11.5997343 5.40810378,12.2092584 5.52988025,12.8040257 C5.65165672,13.398793 6.11994161,13.8615072 6.71612355,13.9761575 C7.31230549,14.0908079 7.91880928,13.8347838 8.25249825,13.3276061 C8.58618723,12.8204283 8.58125338,12.1621192 8.24,11.66 C8.01857798,11.3294483 7.67415343,11.1011797 7.28345289,11.026045 C6.89275235,10.9509103 6.48822992,11.0351506 6.16,11.26 L6.16,11.26 Z" id="Path"></path>
        </g>
    </g>
</svg>