<?xml version="1.0" encoding="UTF-8"?>
<svg width="24px" height="24px" viewBox="0 0 24 24" version="1.1" xmlns="http://www.w3.org/2000/svg" xmlns:xlink="http://www.w3.org/1999/xlink">
    <title>layers-outline</title>
    <g id="Page-1" stroke="none" stroke-width="1" fill="none" fill-rule="evenodd">
        <g id="layers-outline" transform="translate(-0.000000, 0.000000)" fill="#000000" fill-rule="nonzero">
            <rect id="Rectangle" opacity="0" transform="translate(12.000000, 12.000000) rotate(180.000000) translate(-12.000000, -12.000000) " x="1.77635684e-15" y="1.77635684e-15" width="24" height="24"></rect>
            <path d="M21,11.35 C20.9765851,10.9707169 20.7402194,10.63748 20.39,10.49 L18.24,9.57 L20.5,8.27 C20.8267322,8.08207138 21.0200371,7.7263902 21,7.35 C20.9765851,6.97071689 20.7402194,6.63747995 20.39,6.49 L12.39,3.08 C12.1407184,2.97441981 11.8592816,2.97441981 11.61,3.08 L3.61,6.49 C3.25978064,6.63747995 3.02341491,6.97071689 3,7.35 C2.97996285,7.7263902 3.17326784,8.08207138 3.5,8.27 L5.76,9.57 L3.61,10.49 C3.25978064,10.63748 3.02341491,10.9707169 3,11.35 C2.97996285,11.7263902 3.17326784,12.0820714 3.5,12.27 L5.76,13.57 L3.61,14.49 C3.25978064,14.63748 3.02341491,14.9707169 3,15.35 C2.97996285,15.7263902 3.17326784,16.0820714 3.5,16.27 L11.5,20.87 C11.8094011,21.0486328 12.1905989,21.0486328 12.5,20.87 L20.5,16.27 C20.8267322,16.0820714 21.0200371,15.7263902 21,15.35 C20.9765851,14.9707169 20.7402194,14.63748 20.39,14.49 L18.24,13.57 L20.5,12.27 C20.8267322,12.0820714 21.0200371,11.7263902 21,11.35 L21,11.35 Z M12,5.09 L17.76,7.54 L12,10.85 L6.24,7.54 L12,5.09 Z M11.5,12.87 C11.8094011,13.0486328 12.1905989,13.0486328 12.5,12.87 L16.07,10.87 L17.76,11.59 L12,14.85 L6.24,11.54 L7.93,10.82 L11.5,12.87 Z M17.76,15.54 L12,18.85 L6.24,15.54 L7.93,14.82 L11.5,16.87 C11.8094011,17.0486328 12.1905989,17.0486328 12.5,16.87 L16.07,14.82 L17.76,15.54 Z" id="Shape"></path>
        </g>
    </g>
</svg>