<?xml version="1.0" encoding="UTF-8"?>
<svg width="120px" height="24px" viewBox="0 0 120 24" version="1.1" xmlns="http://www.w3.org/2000/svg" xmlns:xlink="http://www.w3.org/1999/xlink">
    <title>Artboard</title>
    <g id="Artboard" stroke="none" stroke-width="1" fill="none" fill-rule="evenodd">
        <g id="DESIGN101" transform="translate(4.584000, 3.592000)" fill="#000000" fill-rule="nonzero">
            <path d="M5.4,0.288 C6.6,0.288 7.688,0.44 8.664,0.744 C9.64,1.048 10.476,1.504 11.172,2.112 C11.868,2.72 12.404,3.476 12.78,4.38 C13.156,5.284 13.344,6.336 13.344,7.536 C13.344,8.88 13.12,10.044 12.672,11.028 C12.224,12.012 11.612,12.828 10.836,13.476 C10.06,14.124 9.152,14.608 8.112,14.928 C7.072,15.248 5.968,15.408 4.8,15.408 L0,15.408 L0,0.288 L5.4,0.288 Z M3.648,12.624 L4.584,12.624 C5.224,12.624 5.844,12.544 6.444,12.384 C7.044,12.224 7.568,11.948 8.016,11.556 C8.464,11.164 8.824,10.64 9.096,9.984 C9.368,9.328 9.504,8.512 9.504,7.536 C9.504,6.08 9.096,4.972 8.28,4.212 C7.464,3.452 6.36,3.072 4.968,3.072 L3.648,3.072 L3.648,12.624 Z" id="D"></path>
            <polygon id="E" points="15.792 0.288 25.872 0.288 25.872 3.072 19.44 3.072 19.44 6.168 25.248 6.168 25.248 8.928 19.44 8.928 19.44 12.624 25.944 12.624 25.944 15.408 15.792 15.408"></polygon>
            <path d="M33.456,0 C34.512,0 35.424,0.108 36.192,0.324 C36.96,0.54 37.624,0.8 38.184,1.104 L37.368,3.768 C36.744,3.448 36.116,3.196 35.484,3.012 C34.852,2.828 34.248,2.736 33.672,2.736 C32.936,2.736 32.376,2.872 31.992,3.144 C31.608,3.416 31.416,3.776 31.416,4.224 C31.416,4.736 31.6,5.108 31.968,5.34 C32.336,5.572 32.904,5.816 33.672,6.072 L35.088,6.528 C35.648,6.72 36.168,6.956 36.648,7.236 C37.128,7.516 37.54,7.84 37.884,8.208 C38.228,8.576 38.496,8.992 38.688,9.456 C38.88,9.92 38.976,10.424 38.976,10.968 C38.976,11.608 38.856,12.212 38.616,12.78 C38.376,13.348 38.012,13.848 37.524,14.28 C37.036,14.712 36.42,15.052 35.676,15.3 C34.932,15.548 34.056,15.672 33.048,15.672 C32.104,15.672 31.204,15.572 30.348,15.372 C29.492,15.172 28.704,14.888 27.984,14.52 L28.8,11.856 C29.488,12.192 30.16,12.456 30.816,12.648 C31.472,12.84 32.16,12.936 32.88,12.936 C33.728,12.936 34.34,12.796 34.716,12.516 C35.092,12.236 35.28,11.856 35.28,11.376 C35.28,11.216 35.248,11.056 35.184,10.896 C35.12,10.736 34.996,10.576 34.812,10.416 C34.628,10.256 34.372,10.1 34.044,9.948 C33.716,9.796 33.296,9.64 32.784,9.48 L31.608,9.072 C31.048,8.864 30.528,8.632 30.048,8.376 C29.568,8.12 29.156,7.816 28.812,7.464 C28.468,7.112 28.2,6.704 28.008,6.24 C27.816,5.776 27.72,5.224 27.72,4.584 C27.72,3.928 27.844,3.32 28.092,2.76 C28.34,2.2 28.708,1.716 29.196,1.308 C29.684,0.9 30.284,0.58 30.996,0.348 C31.708,0.116 32.528,0 33.456,0 Z" id="S"></path>
            <polygon id="I" points="45.12 0.288 45.12 15.408 41.472 15.408 41.472 0.288"></polygon>
            <path d="M55.752,0 C56.712,0 57.564,0.08 58.308,0.24 C59.052,0.4 59.712,0.616 60.288,0.888 L59.544,3.288 C59,3.016 58.428,2.82 57.828,2.7 C57.228,2.58 56.648,2.52 56.088,2.52 C55.448,2.52 54.848,2.624 54.288,2.832 C53.728,3.04 53.236,3.364 52.812,3.804 C52.388,4.244 52.056,4.8 51.816,5.472 C51.576,6.144 51.456,6.944 51.456,7.872 C51.456,9.568 51.828,10.868 52.572,11.772 C53.316,12.676 54.384,13.128 55.776,13.128 C56.112,13.128 56.416,13.112 56.688,13.08 C56.96,13.048 57.168,13 57.312,12.936 L57.312,9.648 L54.936,9.648 L54.936,6.96 L60.816,6.96 L60.816,14.736 C60.192,15.008 59.456,15.232 58.608,15.408 C57.76,15.584 56.808,15.672 55.752,15.672 C54.6,15.672 53.532,15.504 52.548,15.168 C51.564,14.832 50.704,14.332 49.968,13.668 C49.232,13.004 48.656,12.188 48.24,11.22 C47.824,10.252 47.616,9.136 47.616,7.872 C47.616,6.608 47.824,5.484 48.24,4.5 C48.656,3.516 49.232,2.692 49.968,2.028 C50.704,1.364 51.564,0.86 52.548,0.516 C53.532,0.172 54.6,0 55.752,0 Z" id="G"></path>
            <path d="M63.552,0.288 L66.912,0.288 L70.224,5.352 C70.816,6.264 71.388,7.196 71.94,8.148 C72.492,9.1 72.92,9.96 73.224,10.728 L73.272,10.728 C73.192,9.768 73.144,8.804 73.128,7.836 C73.112,6.868 73.104,5.904 73.104,4.944 L73.104,0.288 L76.464,0.288 L76.464,15.408 L73.104,15.408 L69.6,10.248 C69.024,9.4 68.496,8.536 68.016,7.656 C67.536,6.776 67.128,5.848 66.792,4.872 L66.744,4.872 C66.824,5.88 66.872,6.848 66.888,7.776 C66.904,8.704 66.912,9.648 66.912,10.608 L66.912,15.408 L63.552,15.408 L63.552,0.288 Z" id="N"></path>
            <polygon id="1" points="83.328 0.288 86.304 0.288 86.304 15.408 82.8 15.408 82.8 3.456 79.944 4.824 79.128 2.232"></polygon>
            <path d="M95.4,0 C96.312,0 97.156,0.148 97.932,0.444 C98.708,0.74 99.376,1.204 99.936,1.836 C100.496,2.468 100.936,3.276 101.256,4.26 C101.576,5.244 101.736,6.424 101.736,7.8 C101.736,9.144 101.564,10.312 101.22,11.304 C100.876,12.296 100.408,13.116 99.816,13.764 C99.224,14.412 98.544,14.892 97.776,15.204 C97.008,15.516 96.208,15.672 95.376,15.672 C94.464,15.672 93.62,15.52 92.844,15.216 C92.068,14.912 91.396,14.44 90.828,13.8 C90.26,13.16 89.816,12.344 89.496,11.352 C89.176,10.36 89.016,9.176 89.016,7.8 C89.016,6.488 89.192,5.34 89.544,4.356 C89.896,3.372 90.364,2.56 90.948,1.92 C91.532,1.28 92.208,0.8 92.976,0.48 C93.744,0.16 94.552,0 95.4,0 Z M92.664,7.8 C92.664,8.808 92.74,9.648 92.892,10.32 C93.044,10.992 93.244,11.532 93.492,11.94 C93.74,12.348 94.028,12.636 94.356,12.804 C94.684,12.972 95.032,13.056 95.4,13.056 C95.752,13.056 96.092,12.972 96.42,12.804 C96.748,12.636 97.036,12.348 97.284,11.94 C97.532,11.532 97.728,10.992 97.872,10.32 C98.016,9.648 98.088,8.808 98.088,7.8 C98.088,6.792 98.016,5.956 97.872,5.292 C97.728,4.628 97.532,4.1 97.284,3.708 C97.036,3.316 96.748,3.036 96.42,2.868 C96.092,2.7 95.752,2.616 95.4,2.616 C95.032,2.616 94.684,2.696 94.356,2.856 C94.028,3.016 93.74,3.296 93.492,3.696 C93.244,4.096 93.044,4.628 92.892,5.292 C92.74,5.956 92.664,6.792 92.664,7.8 Z" id="0"></path>
            <polygon id="1" points="107.784 0.288 110.76 0.288 110.76 15.408 107.256 15.408 107.256 3.456 104.4 4.824 103.584 2.232"></polygon>
        </g>
    </g>
</svg>